<mxfile host="app.diagrams.net" agent="Mozilla/5.0 (Macintosh; Intel Mac OS X 10_15_7) AppleWebKit/605.1.15 (KHTML, like Gecko) Version/18.4 Safari/605.1.15" version="27.0.5">
  <diagram name="페이지-1" id="-KZYM6Td4oIErmwUqALx">
    <mxGraphModel dx="1031" dy="1113" grid="1" gridSize="10" guides="1" tooltips="1" connect="1" arrows="1" fold="1" page="1" pageScale="1" pageWidth="827" pageHeight="1169" background="light-dark(#FFFFFF,#FFFFFF)" math="0" shadow="0">
      <root>
        <mxCell id="0" />
        <mxCell id="1" parent="0" />
        <mxCell id="B2Fq845AjG6uxpc5GO-u-16" style="edgeStyle=orthogonalEdgeStyle;rounded=0;orthogonalLoop=1;jettySize=auto;html=1;exitX=0.5;exitY=1;exitDx=0;exitDy=0;entryX=0.5;entryY=0;entryDx=0;entryDy=0;strokeColor=light-dark(#000000,#000000);" edge="1" parent="1" source="B2Fq845AjG6uxpc5GO-u-2" target="B2Fq845AjG6uxpc5GO-u-4">
          <mxGeometry relative="1" as="geometry" />
        </mxCell>
        <mxCell id="B2Fq845AjG6uxpc5GO-u-2" value="요약 시작 요청" style="rounded=1;whiteSpace=wrap;html=1;fillColor=#f5f5f5;strokeColor=#666666;gradientColor=#b3b3b3;" vertex="1" parent="1">
          <mxGeometry x="400" y="380" width="120" height="60" as="geometry" />
        </mxCell>
        <mxCell id="B2Fq845AjG6uxpc5GO-u-12" style="edgeStyle=orthogonalEdgeStyle;rounded=0;orthogonalLoop=1;jettySize=auto;html=1;exitX=0.5;exitY=1;exitDx=0;exitDy=0;entryX=0.5;entryY=0;entryDx=0;entryDy=0;strokeColor=light-dark(#000000,#000000);" edge="1" parent="1" source="B2Fq845AjG6uxpc5GO-u-3" target="B2Fq845AjG6uxpc5GO-u-5">
          <mxGeometry relative="1" as="geometry" />
        </mxCell>
        <mxCell id="B2Fq845AjG6uxpc5GO-u-3" value="메인 화면" style="rounded=1;whiteSpace=wrap;html=1;fillColor=#f5f5f5;strokeColor=#666666;gradientColor=#b3b3b3;" vertex="1" parent="1">
          <mxGeometry x="400" y="80" width="120" height="60" as="geometry" />
        </mxCell>
        <mxCell id="B2Fq845AjG6uxpc5GO-u-17" style="edgeStyle=orthogonalEdgeStyle;rounded=0;orthogonalLoop=1;jettySize=auto;html=1;entryX=0.5;entryY=0;entryDx=0;entryDy=0;strokeColor=light-dark(#000000,#000000);" edge="1" parent="1" source="B2Fq845AjG6uxpc5GO-u-4" target="B2Fq845AjG6uxpc5GO-u-7">
          <mxGeometry relative="1" as="geometry" />
        </mxCell>
        <mxCell id="B2Fq845AjG6uxpc5GO-u-4" value="LLM 요약 수행" style="rounded=1;whiteSpace=wrap;html=1;fillColor=#f5f5f5;strokeColor=#666666;gradientColor=#b3b3b3;" vertex="1" parent="1">
          <mxGeometry x="400" y="480" width="120" height="60" as="geometry" />
        </mxCell>
        <mxCell id="B2Fq845AjG6uxpc5GO-u-14" style="edgeStyle=orthogonalEdgeStyle;rounded=0;orthogonalLoop=1;jettySize=auto;html=1;exitX=0.5;exitY=1;exitDx=0;exitDy=0;entryX=0.5;entryY=0;entryDx=0;entryDy=0;strokeColor=light-dark(#000000,#000000);" edge="1" parent="1" source="B2Fq845AjG6uxpc5GO-u-5" target="B2Fq845AjG6uxpc5GO-u-6">
          <mxGeometry relative="1" as="geometry" />
        </mxCell>
        <mxCell id="B2Fq845AjG6uxpc5GO-u-5" value="모델 선택 + 요약 스타일 선택" style="rounded=1;whiteSpace=wrap;html=1;fillColor=#f5f5f5;strokeColor=#666666;gradientColor=#b3b3b3;" vertex="1" parent="1">
          <mxGeometry x="400" y="180" width="120" height="60" as="geometry" />
        </mxCell>
        <mxCell id="B2Fq845AjG6uxpc5GO-u-15" style="edgeStyle=orthogonalEdgeStyle;rounded=0;orthogonalLoop=1;jettySize=auto;html=1;exitX=0.5;exitY=1;exitDx=0;exitDy=0;entryX=0.5;entryY=0;entryDx=0;entryDy=0;strokeColor=light-dark(#000000,#000000);" edge="1" parent="1" source="B2Fq845AjG6uxpc5GO-u-6" target="B2Fq845AjG6uxpc5GO-u-2">
          <mxGeometry relative="1" as="geometry" />
        </mxCell>
        <mxCell id="B2Fq845AjG6uxpc5GO-u-6" value="txt 파일 업로드 or&amp;nbsp;&lt;div&gt;텍스트 입력 or&amp;nbsp;&lt;/div&gt;&lt;div&gt;URL 입력&lt;/div&gt;" style="rounded=1;whiteSpace=wrap;html=1;fillColor=#f5f5f5;strokeColor=#666666;gradientColor=#b3b3b3;" vertex="1" parent="1">
          <mxGeometry x="400" y="280" width="120" height="60" as="geometry" />
        </mxCell>
        <mxCell id="B2Fq845AjG6uxpc5GO-u-19" style="edgeStyle=orthogonalEdgeStyle;rounded=0;orthogonalLoop=1;jettySize=auto;html=1;exitX=0;exitY=0.5;exitDx=0;exitDy=0;entryX=0.5;entryY=0;entryDx=0;entryDy=0;strokeColor=light-dark(#000000,#000000);" edge="1" parent="1" source="B2Fq845AjG6uxpc5GO-u-7" target="B2Fq845AjG6uxpc5GO-u-9">
          <mxGeometry relative="1" as="geometry" />
        </mxCell>
        <mxCell id="B2Fq845AjG6uxpc5GO-u-21" style="edgeStyle=orthogonalEdgeStyle;rounded=0;orthogonalLoop=1;jettySize=auto;html=1;exitX=0.5;exitY=1;exitDx=0;exitDy=0;entryX=0.5;entryY=0;entryDx=0;entryDy=0;strokeColor=light-dark(#000000,#000000);" edge="1" parent="1" source="B2Fq845AjG6uxpc5GO-u-7" target="B2Fq845AjG6uxpc5GO-u-11">
          <mxGeometry relative="1" as="geometry" />
        </mxCell>
        <mxCell id="B2Fq845AjG6uxpc5GO-u-22" style="edgeStyle=orthogonalEdgeStyle;rounded=0;orthogonalLoop=1;jettySize=auto;html=1;exitX=1;exitY=0.5;exitDx=0;exitDy=0;entryX=0.5;entryY=0;entryDx=0;entryDy=0;strokeColor=light-dark(#000000,#000000);" edge="1" parent="1" source="B2Fq845AjG6uxpc5GO-u-7" target="B2Fq845AjG6uxpc5GO-u-10">
          <mxGeometry relative="1" as="geometry" />
        </mxCell>
        <mxCell id="B2Fq845AjG6uxpc5GO-u-7" value="요약 결과 출력&lt;div&gt;압축률 그래프 표시&lt;/div&gt;" style="rounded=1;whiteSpace=wrap;html=1;fillColor=#f5f5f5;strokeColor=#666666;gradientColor=#b3b3b3;" vertex="1" parent="1">
          <mxGeometry x="400" y="585" width="120" height="60" as="geometry" />
        </mxCell>
        <mxCell id="B2Fq845AjG6uxpc5GO-u-9" value="요약 파일 다운로드 .txt" style="rounded=1;whiteSpace=wrap;html=1;fillColor=#f5f5f5;strokeColor=#666666;gradientColor=#b3b3b3;" vertex="1" parent="1">
          <mxGeometry x="240" y="680" width="120" height="60" as="geometry" />
        </mxCell>
        <mxCell id="B2Fq845AjG6uxpc5GO-u-23" style="edgeStyle=orthogonalEdgeStyle;rounded=0;orthogonalLoop=1;jettySize=auto;html=1;exitX=0.75;exitY=0;exitDx=0;exitDy=0;entryX=1;entryY=0.5;entryDx=0;entryDy=0;strokeColor=light-dark(#000000,#000000);" edge="1" parent="1" source="B2Fq845AjG6uxpc5GO-u-10" target="B2Fq845AjG6uxpc5GO-u-3">
          <mxGeometry relative="1" as="geometry" />
        </mxCell>
        <mxCell id="B2Fq845AjG6uxpc5GO-u-10" value="메인 화면으로 돌아가기" style="rounded=1;whiteSpace=wrap;html=1;fillColor=#f5f5f5;strokeColor=#666666;gradientColor=#b3b3b3;" vertex="1" parent="1">
          <mxGeometry x="560" y="680" width="120" height="60" as="geometry" />
        </mxCell>
        <mxCell id="B2Fq845AjG6uxpc5GO-u-11" value="요약 결과 이메일 발송" style="rounded=1;whiteSpace=wrap;html=1;fillColor=#f5f5f5;strokeColor=#666666;gradientColor=#b3b3b3;" vertex="1" parent="1">
          <mxGeometry x="400" y="680" width="120" height="60" as="geometry" />
        </mxCell>
      </root>
    </mxGraphModel>
  </diagram>
</mxfile>
